<svg xmlns="http://www.w3.org/2000/svg" viewBox="0 0 91.28 26.39"><defs><style>.a0701300-e30f-4692-8bb8-19d5b5d46e0f,.a5bf9fa2-8f6c-4851-a9a3-74b4aed19ccb{fill:#e30613;}.a074aa34-3b98-4245-903a-242013b28047{opacity:0.5;}.bf100ff2-ce17-4d41-9f05-9c80291f3373,.e47933b4-977c-47ca-9cdf-7c5942d63f4e{fill:#fff;}.a5bf9fa2-8f6c-4851-a9a3-74b4aed19ccb,.e47933b4-977c-47ca-9cdf-7c5942d63f4e{fill-rule:evenodd;}</style></defs><g id="fc9959b1-409d-4e71-9d4c-13d2b9d55c1a" data-name="Transparence"><polygon points="50.57 10.83 50.54 10.83 49.78 15.57 51.33 15.57 50.57 10.83"/><path d="M57.42,13.11a1,1,0,0,0,.38-.46,1.86,1.86,0,0,0,.14-.68q0-.41,0-.9c0-.3,0-.59,0-.87a2.14,2.14,0,0,0-.14-.72A1,1,0,0,0,57.45,9a1.25,1.25,0,0,0-.7-.17h-.81v4.44h.75A1.36,1.36,0,0,0,57.42,13.11Z"/><path d="M0,0V26.39H91.28V0ZM87.14,22.57H47.6v-.72H87.14ZM47.5,20.14,49.92,7.07h1.29l2.42,13.07H52.08l-.46-2.81H49.5l-.45,2.81Zm6.89,0V7.07h2.33a3.08,3.08,0,0,1,1.13.2,2.34,2.34,0,0,1,.88.72,3,3,0,0,1,.54,1.2,8.37,8.37,0,0,1,.16,1.86,10.33,10.33,0,0,1-.09,1.49A3.51,3.51,0,0,1,59,13.68a2.56,2.56,0,0,1-.86,1,2.44,2.44,0,0,1-1.4.36h-.79v5.1Zm6.24,0V7.07h1.55V20.14ZM63.34,16V14.12h2.59V16ZM87.14,5.18H47.6V4.46H87.14Z"/><path class="a0701300-e30f-4692-8bb8-19d5b5d46e0f" d="M67,10.15a4,4,0,0,1,.23-1.39,3.06,3.06,0,0,1,.61-1,2.52,2.52,0,0,1,.83-.59,2.29,2.29,0,0,1,1.87,0,2.83,2.83,0,0,1,.85.59,3.2,3.2,0,0,1,.59,1,4,4,0,0,1,.23,1.39v6.91a3.65,3.65,0,0,1-.23,1.34l1,.93-.79,1.14-.92-.9a2.26,2.26,0,0,1-1.62.68,2.41,2.41,0,0,1-.94-.2,2.45,2.45,0,0,1-.83-.61,2.77,2.77,0,0,1-.61-1A3.93,3.93,0,0,1,67,17.06Zm1.56,6.91a1.39,1.39,0,0,0,.31,1,1,1,0,0,0,.74.32.62.62,0,0,0,.33-.08l-.7-.67L70,16.49l.63.6V10.15a1.4,1.4,0,0,0-.32-1,1,1,0,0,0-1.47,0,1.39,1.39,0,0,0-.31,1Z"/><path class="a0701300-e30f-4692-8bb8-19d5b5d46e0f" d="M78.55,7.07V17.2a3.5,3.5,0,0,1-.19,1.19,3.22,3.22,0,0,1-.54,1A2.56,2.56,0,0,1,77,20a2,2,0,0,1-1,.24,2,2,0,0,1-1-.24,2.77,2.77,0,0,1-.8-.66,3.22,3.22,0,0,1-.54-1,3.27,3.27,0,0,1-.2-1.19V7.07h1.55V17a1.63,1.63,0,0,0,.27,1,.87.87,0,0,0,.69.33.85.85,0,0,0,.68-.33A1.56,1.56,0,0,0,77,17V7.07Z"/><path class="a0701300-e30f-4692-8bb8-19d5b5d46e0f" d="M80.06,20.14V7.07h1.55V20.14Z"/><path class="a0701300-e30f-4692-8bb8-19d5b5d46e0f" d="M82.61,20.14V18.49l2.92-9.66H82.77V7.07h4.45V8.56l-3,9.82h3v1.76Z"/><g class="a074aa34-3b98-4245-903a-242013b28047"><path class="bf100ff2-ce17-4d41-9f05-9c80291f3373" d="M49.5,17.33h2.12l.46,2.81h1.55L51.21,7.07H49.92L47.5,20.14h1.55Zm1-6.5h0l.76,4.74H49.78Z"/><rect class="bf100ff2-ce17-4d41-9f05-9c80291f3373" x="47.6" y="21.85" width="39.55" height="0.72"/><rect class="bf100ff2-ce17-4d41-9f05-9c80291f3373" x="60.63" y="7.07" width="1.55" height="13.07"/><rect class="bf100ff2-ce17-4d41-9f05-9c80291f3373" x="47.6" y="4.46" width="39.55" height="0.72"/><rect class="bf100ff2-ce17-4d41-9f05-9c80291f3373" x="63.34" y="14.12" width="2.6" height="1.87"/><path class="bf100ff2-ce17-4d41-9f05-9c80291f3373" d="M56.73,15a2.44,2.44,0,0,0,1.4-.36,2.56,2.56,0,0,0,.86-1,3.51,3.51,0,0,0,.35-1.14,10.33,10.33,0,0,0,.09-1.49,8.37,8.37,0,0,0-.16-1.86A3,3,0,0,0,58.73,8a2.34,2.34,0,0,0-.88-.72,3.08,3.08,0,0,0-1.13-.2H54.39V20.14h1.55V15Zm-.79-6.21h.81a1.25,1.25,0,0,1,.7.17,1,1,0,0,1,.36.48,2.14,2.14,0,0,1,.14.72c0,.28,0,.57,0,.87s0,.63,0,.9a1.86,1.86,0,0,1-.14.68,1,1,0,0,1-.38.46,1.36,1.36,0,0,1-.73.16h-.75Z"/></g></g><g id="b891d213-efe7-49d7-8350-cd0753aeb8d4" data-name="Logo"><polygon class="a5bf9fa2-8f6c-4851-a9a3-74b4aed19ccb" points="45.39 22.57 5.17 22.57 5.17 4.46 45.39 4.46 45.39 22.57 45.39 22.57"/><polygon class="e47933b4-977c-47ca-9cdf-7c5942d63f4e" points="27.88 6.86 30.36 6.86 31.46 14.86 32.56 6.86 34.97 6.86 32.86 20.12 30.07 20.12 27.88 6.86 27.88 6.86"/><path class="e47933b4-977c-47ca-9cdf-7c5942d63f4e" d="M27.27,15l1.51,5.13H26.4l-1.11-4.3a5.07,5.07,0,0,1-.56,0v4.25H22.34V6.86h2.39c2.74,0,4,2.32,4.07,4.5A4.48,4.48,0,0,1,27.27,15ZM24.73,9.25c1.11,0,1.58,1,1.59,2s-.5,2.21-1.59,2.22V9.25Z"/><path class="e47933b4-977c-47ca-9cdf-7c5942d63f4e" d="M17.4,6.86h3.18l2,13.26H20.19l-.25-2H18l-.25,2H15.4l2-13.26ZM19.68,16,19,10.32,18.31,16Z"/><polygon class="e47933b4-977c-47ca-9cdf-7c5942d63f4e" points="7.36 6.86 10.45 6.86 11.47 13.56 12.5 6.86 15.58 6.86 15.58 20.12 13.19 20.12 13.19 13.66 12.18 20.14 10.76 20.14 9.75 13.66 9.75 20.12 7.36 20.12 7.36 6.86 7.36 6.86"/><polygon class="e47933b4-977c-47ca-9cdf-7c5942d63f4e" points="42.06 17.72 44.09 17.72 44.09 20.12 39.67 20.12 39.67 6.86 42.06 6.86 42.06 17.72 42.06 17.72"/><polygon class="e47933b4-977c-47ca-9cdf-7c5942d63f4e" points="37.13 17.72 39.27 17.72 39.27 20.12 34.74 20.12 34.74 6.86 39.27 6.86 39.27 9.31 37.13 9.31 37.13 12.27 39.27 12.27 39.27 14.71 37.13 14.71 37.13 17.72 37.13 17.72"/></g></svg>