<svg xmlns="http://www.w3.org/2000/svg" viewBox="0 0 71.92 26.39"><defs><style>.a79a4b14-5a65-463e-aa9f-48d97d8908a1{opacity:0.8;}.bb192292-23ee-435c-b776-a536cd606eef,.e75e8fe9-86ad-452d-a4fd-e8491ac86e7b{fill:#fff;}.aa6d6527-b225-46f1-967c-165377ebcc7a,.efd107ad-1ddd-406f-a31e-1bf168aee56b{fill:#f0141e;}.bb192292-23ee-435c-b776-a536cd606eef,.efd107ad-1ddd-406f-a31e-1bf168aee56b{fill-rule:evenodd;}</style></defs><g id="afa61b99-4f50-4bce-aed9-eba7cc8ca022" data-name="Transparence"><path d="M0,0V26.39H71.92V0ZM67.24,22.25H47.05v-.72H67.24Zm0-17.39H47.05V4.14H67.24Z"/><g class="a79a4b14-5a65-463e-aa9f-48d97d8908a1"><rect class="e75e8fe9-86ad-452d-a4fd-e8491ac86e7b" x="47.05" y="21.53" width="20.19" height="0.72"/><rect class="e75e8fe9-86ad-452d-a4fd-e8491ac86e7b" x="47.05" y="4.14" width="20.19" height="0.72"/></g><path class="aa6d6527-b225-46f1-967c-165377ebcc7a" d="M52.26,16.74V9.84A3.93,3.93,0,0,0,52,8.45a3.1,3.1,0,0,0-.59-1,2.66,2.66,0,0,0-.85-.59,2.29,2.29,0,0,0-1.87,0,2.39,2.39,0,0,0-.83.59,3,3,0,0,0-.61,1,3.93,3.93,0,0,0-.23,1.39v6.9a4,4,0,0,0,.23,1.42,2.87,2.87,0,0,0,.61,1,2.29,2.29,0,0,0,.83.6,2.24,2.24,0,0,0,.93.21,2.27,2.27,0,0,0,1.63-.68l.92.9L53,19l-1-.94A3.61,3.61,0,0,0,52.26,16.74Zm-1.55,0v0l-.63-.61-.79,1.14L50,18a.64.64,0,0,1-.34.07,1,1,0,0,1-.73-.32,1.38,1.38,0,0,1-.32-1V9.84a1.38,1.38,0,0,1,.32-1,1,1,0,0,1,.73-.32,1,1,0,0,1,.74.32,1.38,1.38,0,0,1,.32,1Z"/><path class="aa6d6527-b225-46f1-967c-165377ebcc7a" d="M57.1,16.71a1.59,1.59,0,0,1-.28,1,.88.88,0,0,1-1.37,0,1.59,1.59,0,0,1-.27-1v-10H53.63V16.89a3.44,3.44,0,0,0,.19,1.18,3.69,3.69,0,0,0,.55,1,2.77,2.77,0,0,0,.8.66,2,2,0,0,0,1,.24,2,2,0,0,0,1-.24,2.68,2.68,0,0,0,.81-.66,3.33,3.33,0,0,0,.73-2.15V6.76H57.1Z"/><rect class="aa6d6527-b225-46f1-967c-165377ebcc7a" x="60.16" y="6.76" width="1.55" height="13.07"/><polygon class="aa6d6527-b225-46f1-967c-165377ebcc7a" points="67.32 6.76 62.86 6.76 62.86 8.52 65.63 8.52 62.71 18.17 62.71 19.82 67.32 19.82 67.32 18.06 64.34 18.06 67.32 8.24 67.32 6.76"/></g><g id="b09ecc08-6c93-4ae8-846f-7abadc87f4c7" data-name="Logo"><polygon class="efd107ad-1ddd-406f-a31e-1bf168aee56b" points="44.85 22.25 4.63 22.25 4.63 4.14 44.85 4.14 44.85 22.25 44.85 22.25"/><polygon class="bb192292-23ee-435c-b776-a536cd606eef" points="27.34 6.55 29.82 6.55 30.92 14.55 32.02 6.55 34.43 6.55 32.32 19.81 29.52 19.81 27.34 6.55 27.34 6.55"/><path class="bb192292-23ee-435c-b776-a536cd606eef" d="M26.73,14.68l1.51,5.12H25.86l-1.11-4.3a5.1,5.1,0,0,1-.57,0v4.26H21.79V6.55h2.39c2.75,0,4.05,2.33,4.08,4.51a4.53,4.53,0,0,1-1.53,3.62ZM24.18,8.93c1.12,0,1.59,1,1.6,2s-.5,2.21-1.6,2.22V8.93Z"/><path class="bb192292-23ee-435c-b776-a536cd606eef" d="M16.86,6.55H20l2,13.26H19.65l-.25-2H17.5l-.25,2H14.86l2-13.26Zm2.27,9.1L18.45,10l-.69,5.65Z"/><polygon class="bb192292-23ee-435c-b776-a536cd606eef" points="6.82 6.55 9.9 6.55 10.93 13.24 11.96 6.55 15.04 6.55 15.04 19.81 12.65 19.81 12.65 13.34 11.64 19.83 10.22 19.83 9.21 13.34 9.21 19.81 6.82 19.81 6.82 6.55 6.82 6.55"/><polygon class="bb192292-23ee-435c-b776-a536cd606eef" points="41.52 17.4 43.54 17.4 43.54 19.81 39.13 19.81 39.13 6.55 41.52 6.55 41.52 17.4 41.52 17.4"/><polygon class="bb192292-23ee-435c-b776-a536cd606eef" points="36.59 17.4 38.73 17.4 38.73 19.81 34.2 19.81 34.2 6.55 38.73 6.55 38.73 9 36.59 9 36.59 11.96 38.73 11.96 38.73 14.39 36.59 14.39 36.59 17.4 36.59 17.4"/></g><g id="a5bb33b0-3f6f-4599-8bfa-13162b244c60" data-name="Original"><rect class="aa6d6527-b225-46f1-967c-165377ebcc7a" x="6.19" y="5.91" width="37.99" height="14.55"/><path class="e75e8fe9-86ad-452d-a4fd-e8491ac86e7b" d="M38.73,9V6.55H32l-1.1,8.08L29.83,6.55H27.41l.27,2.15a3.83,3.83,0,0,0-3.45-2.15H21.81V18.32L20,6.55H16.87L15,18.74V6.55H12L10.92,13.4,9.86,6.55h-3V19.81H9.21V13.42l1.09,6.39h1.27l1.07-6.39v6.39h4.6l.28-2h1.86l.27,2h4.53V15.5l.56-.08,1.15,4.39h2.34l-1.51-5.14a3.84,3.84,0,0,0,1.4-3.38h0s1.42,8.53,1.42,8.53h2.78l1.9-12v12h4.51V17.42H36.59v-3h2.14V12H36.59V9ZM17.8,15.67,18.46,10l.68,5.67Zm7-2.62a1.4,1.4,0,0,1-.57.13V8.92h0c.18,0,1.58.05,1.58,2.11a2.13,2.13,0,0,1-1,2Zm18.79,4.37v2.39h-4.4V6.54h2.37V17.42Z"/></g></svg>