<svg id="e96d1e65-172f-4419-923c-c6be3e5c29b2" data-name="Calque 1" xmlns="http://www.w3.org/2000/svg" viewBox="0 0 91.28 26.39"><defs><style>.bd19057d-27ad-4fd0-94e1-65f4c2a4a7a7,.e43784e9-a02b-49f2-95a1-cc6966035c11,.f22f2794-40c6-42fb-bd10-d0432ef5b1d5{fill-rule:evenodd;}.f22f2794-40c6-42fb-bd10-d0432ef5b1d5{fill:#e30613;}.aba6f9b3-acdf-456d-b859-0d49be586665,.e43784e9-a02b-49f2-95a1-cc6966035c11{fill:#fff;}</style></defs><polygon class="bd19057d-27ad-4fd0-94e1-65f4c2a4a7a7" points="0 0 91.28 0 91.28 26.39 0 26.39 0 0 0 0"/><polygon class="f22f2794-40c6-42fb-bd10-d0432ef5b1d5" points="45.39 22.57 5.17 22.57 5.17 4.46 45.39 4.46 45.39 22.57 45.39 22.57"/><polygon class="e43784e9-a02b-49f2-95a1-cc6966035c11" points="27.88 6.86 30.36 6.86 31.46 14.86 32.56 6.86 34.97 6.86 32.86 20.12 30.07 20.12 27.88 6.86 27.88 6.86"/><path class="e43784e9-a02b-49f2-95a1-cc6966035c11" d="M27.27,15l1.51,5.13H26.4l-1.11-4.3a5.07,5.07,0,0,1-.56,0v4.25H22.34V6.86h2.39c2.74,0,4,2.32,4.07,4.5A4.48,4.48,0,0,1,27.27,15ZM24.73,9.25c1.11,0,1.58,1,1.59,2s-.5,2.21-1.59,2.22V9.25Z"/><path class="e43784e9-a02b-49f2-95a1-cc6966035c11" d="M17.4,6.86h3.18l2,13.26H20.19l-.25-2H18l-.25,2H15.4l2-13.26ZM19.68,16,19,10.32,18.31,16Z"/><polygon class="e43784e9-a02b-49f2-95a1-cc6966035c11" points="7.36 6.86 10.45 6.86 11.47 13.56 12.5 6.86 15.58 6.86 15.58 20.12 13.19 20.12 13.19 13.66 12.18 20.14 10.76 20.14 9.75 13.66 9.75 20.12 7.36 20.12 7.36 6.86 7.36 6.86"/><polygon class="e43784e9-a02b-49f2-95a1-cc6966035c11" points="42.06 17.72 44.09 17.72 44.09 20.12 39.67 20.12 39.67 6.86 42.06 6.86 42.06 17.72 42.06 17.72"/><polygon class="e43784e9-a02b-49f2-95a1-cc6966035c11" points="37.13 17.72 39.27 17.72 39.27 20.12 34.74 20.12 34.74 6.86 39.27 6.86 39.27 9.31 37.13 9.31 37.13 12.27 39.27 12.27 39.27 14.71 37.13 14.71 37.13 17.72 37.13 17.72"/><polygon class="e43784e9-a02b-49f2-95a1-cc6966035c11" points="47.59 4.46 87.14 4.46 87.14 5.18 47.59 5.18 47.59 4.46 47.59 4.46"/><polygon class="e43784e9-a02b-49f2-95a1-cc6966035c11" points="47.59 21.84 87.14 21.84 87.14 22.57 47.59 22.57 47.59 21.84 47.59 21.84"/><path class="aba6f9b3-acdf-456d-b859-0d49be586665" d="M47.5,20.14,49.92,7.07h1.29l2.42,13.07H52.08l-.46-2.81H49.5l-.45,2.81Zm3.83-4.57-.76-4.74h0l-.76,4.74Z"/><path class="aba6f9b3-acdf-456d-b859-0d49be586665" d="M54.39,20.14V7.07h2.33a3.08,3.08,0,0,1,1.13.2,2.34,2.34,0,0,1,.88.72,3,3,0,0,1,.54,1.2,8.37,8.37,0,0,1,.16,1.86,10.33,10.33,0,0,1-.09,1.49A3.51,3.51,0,0,1,59,13.68a2.56,2.56,0,0,1-.86,1,2.44,2.44,0,0,1-1.4.36h-.79v5.1ZM55.94,8.83v4.44h.75a1.36,1.36,0,0,0,.73-.16,1,1,0,0,0,.38-.46,1.86,1.86,0,0,0,.14-.68q0-.41,0-.9c0-.3,0-.59,0-.87a2.14,2.14,0,0,0-.14-.72A1,1,0,0,0,57.45,9a1.25,1.25,0,0,0-.7-.17Z"/><path class="aba6f9b3-acdf-456d-b859-0d49be586665" d="M60.63,20.14V7.07h1.55V20.14Z"/><path class="aba6f9b3-acdf-456d-b859-0d49be586665" d="M63.34,16V14.12h2.59V16Z"/><path class="aba6f9b3-acdf-456d-b859-0d49be586665" d="M67,10.15a4,4,0,0,1,.23-1.39,3.06,3.06,0,0,1,.61-1,2.52,2.52,0,0,1,.83-.59,2.29,2.29,0,0,1,1.87,0,2.83,2.83,0,0,1,.85.59,3.2,3.2,0,0,1,.59,1,4,4,0,0,1,.23,1.39v6.91a3.65,3.65,0,0,1-.23,1.34l1,.93-.79,1.14-.92-.9a2.26,2.26,0,0,1-1.62.68,2.41,2.41,0,0,1-.94-.2,2.45,2.45,0,0,1-.83-.61,2.77,2.77,0,0,1-.61-1A3.93,3.93,0,0,1,67,17.06Zm1.56,6.91a1.39,1.39,0,0,0,.31,1,1,1,0,0,0,.74.32.62.62,0,0,0,.33-.08l-.7-.67L70,16.49l.63.6V10.15a1.4,1.4,0,0,0-.32-1,1,1,0,0,0-1.47,0,1.39,1.39,0,0,0-.31,1Z"/><path class="aba6f9b3-acdf-456d-b859-0d49be586665" d="M78.55,7.07V17.2a3.5,3.5,0,0,1-.19,1.19,3.22,3.22,0,0,1-.54,1A2.56,2.56,0,0,1,77,20a2,2,0,0,1-1,.24,2,2,0,0,1-1-.24,2.77,2.77,0,0,1-.8-.66,3.22,3.22,0,0,1-.54-1,3.27,3.27,0,0,1-.2-1.19V7.07h1.55V17a1.63,1.63,0,0,0,.27,1,.87.87,0,0,0,.69.33.85.85,0,0,0,.68-.33A1.56,1.56,0,0,0,77,17V7.07Z"/><path class="aba6f9b3-acdf-456d-b859-0d49be586665" d="M80.06,20.14V7.07h1.55V20.14Z"/><path class="aba6f9b3-acdf-456d-b859-0d49be586665" d="M82.61,20.14V18.49l2.92-9.66H82.77V7.07h4.45V8.56l-3,9.82h3v1.76Z"/></svg>