<svg id="e1f9e385-2d81-4432-875f-7a2eae8146be" data-name="Calque 1" xmlns="http://www.w3.org/2000/svg" viewBox="0 0 6358.79 1929.98"><defs><style>.bf3f2591-bf59-48b9-9bcf-1697072918c5{fill:#fff;}</style></defs><path d="M894.27,56.92a8.07,8.07,0,0,0,4.3-3.37A24.29,24.29,0,0,1,894.27,56.92Z"/><path d="M1638.51,48.2a6.39,6.39,0,0,0,1.75,1.73C1639.68,49.4,1639.11,48.84,1638.51,48.2Z"/><path d="M6342.58,45c-30.35,31.85-6.84-5.35-60.34-.63-10.62,5-15.8,8.47-18.12,10.71-3-2.83-13.28-7.08-42.22-11.34-21.39,8.67-35.43,11.14-44.64,10.61,12.18,11.28-53.1-19.31-76-11.89,41.47,58.72-57.13,14.56-63,2.26-44.18,48.23-52.94,5.76-57.72-3.52-51.94-3.47-79.36-21.22-60.34-.63-28.54,20-66.43,3.72-66.59-.33-50,1.85-26.42-17.41-54.1-1-60.09,14.44-76.54,6.11-76.9-.65-40.66-.57-70.15-4.34-43.78-.61a81.74,81.74,0,0,0,1.46,16.76c-10.67-6.52-29.64-13.4-61.8-17.39-42-24.27-86.11,43.71-60.64-.63-17.67-10.81-8.16,42.88-56.37,3.05-15.3,4.6-45.35,8.74-64.92-4.09-59.64,30.73-35.33-28.94-60.65-.27-7.55,19-44-22.62-60.64-.06-55.11,34.62,4.48-39.58-60.65.23-50.38-58-54.35,1.73-60.59.57-31.5,10.4-21-6.48-60.65,1a78.51,78.51,0,0,1-41-2.48c15.7-3.15,11.53-2.32-.86-.29-33.41-11.74-42-40.35-19.32,3.08-25.52,3.85-58.13,7.82-59.94,3.05-2-50.76-56.62-12-65.68.55-45.14-16.83-51-2.2-51.79,5.87,29.7,8.18,15.16,54.06-63.86,3.05-89.53,37.71-61.34,22.34-60.34,4.58-18.07,18.71-34.72,29.45-46.15,30.81s-17.56-6.68-14.59-25.49c-16.46-8.17-21.75-25.57-42.93-25.57,0,13-5.29,26.1-15.91,30.43-31.75,13-37,0-37.09-13.07-15.85,17.41-26.42,34.8-42.32,17.39-37.1-34.84-68.9-21.79-121.85-13.13-10.56,0-21.18-4.36-21.18-17.41-10.57,26.1-42.33,26.08-63.56,13v-13c-51.24-15.33-77.86,46.67-123.11,38.22a11,11,0,0,1,1.31.87c-31.75,0-63.56-13.09-95.32-23.62-13.23-7.8-27.83-11.71-43.08-14.76s-31.1-5.21-47-9.59c0,4.36.05,13.07.05,13.07-84.75,4.3-164.22-.1-248.92,8.55a19.84,19.84,0,0,1,7,1.82c-37.55-8.9-92.2-1.12-97.13-45.37-21.19,30.44-53,47.83-90.29,21.87,1.36,14.82-2.57,19.3-12,17.88s-24.51-8.74-45.4-17.51c-15.39-48-10,17.63-57.36,1.5-52.8,2.47,26.42-22.5-55.16,2,9.41-5.3-15.35-38.87-59.34,4.44,3.52-4.85-56.92,23.66-57.07,5-32-3.82-74.13,38.12-56.92,6.11-12.93,20.87-66.13,14.6-56.67,7.27-3.27-17.65-91.54-54.34-58.28,3.85-10-15.17-24.48-13.48-35.93-7.35C3122,59.44,3113.05,71.29,3117,72.35c-23.09-8.41-33.69,13.33-54.88,4.62,31.81,34.82,0,17.41-5.25,26.1-5.32,4.34-21.19,0-26.5-4.36-21.19-21.78-53-56.6-95.35-30.52,5.29-4.35,10.57-8.69,10.57-13-10.59-13-42.37-4.38-47.68-13.07-21.19-17.43-42.4-52.25-74.19-39.22-15.87,4.36,26.53,21.79.06,34.82C2818.49,42,2813.2,42,2807.89,42c-15.88-8.71,0-39.16-26.49-30.46-5.29,0-5.29,13.05-15.89,13,0-8.69-5.3-13-10.59-17.41C2702,50.66,2643.7,28.88,2585.45,15.78c0,13.05,5.3,21.77,21.18,26.13-15.88-4.36-31.78-4.38-45.67,0A77.86,77.86,0,0,0,2527.22,68c-21.21-30.48-58.25,8.67-90,8.65-5.29,0-15.89-13.07-26.48-8.71-21.19,8.67-21.16,17.39-53,4.32-24.69,4-53.92,34.51-79.24,14-11.78.9-23.7.69-35.35,1.63,1.13-.83,2.26-1.69,3.39-2.6-29.19,4-53.94,15.27-82.41,23.82,9.69-2.08,21.19-2.1,29.47-2.1-95.32,13-190.64,47.75-275.41-8.85v.83c-18.7-13.13-34.5-31.68-63.59-35.68,0,4.34,5.31,8.7,5.31,13.06-21.21-21.77-37.09-13.08-53,8.67,10.59-17.41-15.9-21.76-25.52-12.62-33.67,1.2-35.7-7.4-18.32,7.2-9.94,11.8-30.32,15.91-30-5.88-12.44,6-8.69-24.74-24.06-14.13-12.71-10-16.36,3.85-16.81,13.34-24.54-20.14-23-19.18-6-.78,3.7,1.12,3.72,20.53-26.52,3,6-1.67-.18-3.32-17.57,4.88-8.38,0-27.52,7.17-17.54-4.42-17-7.69-25.44-4.37-28.81.21-5.71-3.46-12-1.75-12.31.39-8.4,12.58,32.92,10.63.36,24.59-3.47,3.5-38.28,8-46.12-24.94,19.12-4.8-26.33,2.69-17.24-2.67-4.73-28.75-17.34-27.3-21-.9-25.29-16-23.22,2-30.17-17.89-12.18-8.37-4.33,16.18-15.08,11.61-13.38-2.08-23.32-9.49-23.37-12.69-19.07,9.23,5.09,8.94-18.72,6.09-16.31,3.58-16.81,9.63-15.73,12.56-.33-.39-.7-.79-1.21-1.32C1383.92,69,1390,65,1373.44,53.88c.46-17-16.2-6.92-31,2.26s-27.68,17.59-20.46-6.31c-32.81,14.9-44.26,15-46,11.1s6.09-11.92,12.23-11.69c-16-9.35-29.59-11.59-40.51-10.16a41.37,41.37,0,0,0-24.31,11.73,29.35,29.35,0,0,0-4.76,6.25c-12,2.34-25.58,4.54-23,2,45.72-4.21-36.84-11.93-26,3.4,13.29,7.72,9.39,22.42.78,28.51s-22,3-27.85-25.11c-47.84-4.78-13.34,2.81-53.07,6.4-24.82,31.68-34-14.93-38.76.56-11.24-30.74-9.53-16.55-52.36-.69-17-9.85-22.09,4.66-23.12,17.94-.54-5.17-1.31-11.65-2.37-19.71-20-28.54-54.7,23.52-43.86-1.22,7.12-.45-33.67-30.18-24.66-6.66C887.51,67.3,849.7,81,846.29,66.12c-32.7,14.07-20.75-20.18-38.95-1.77-57.6-21.12-55.81,39.78-54.75-.84,12.1-26.61-25.52-19.3-43-10.85,10.72,7.35,25.74,20.22.55,9.47,1.89,0,4-.07,6.57-.27-4.15-3.36-7.25-5.93-9.56-8-2.7,1.51-4.66,3-5.51,4.26-12.94-5.93-53.45-9.7-50.61-2.75-42-43-47-12.08-33.82-1.94a103.07,103.07,0,0,1-18.19.88c-64.62,10.24-6.72-.39-39.43-1.18-64.7-13.56,28.33,5.23-30.23-1.28-32.5,18.93-2.36-41.36-34.77-1.84,5.61,8.76,7.45,16.64-17,0-15.73-3.69-21.66-8.57-23.07-12.93a183.49,183.49,0,0,1-15.15,13.09c-15.43-.63-8.74,52.4-50.81,1.15-8.65,14-28.2,7.34-37.06,2.46-42.76,27.83-21.92-11.91-35.89.57-10.77,8.41-22.09-2.1-27.95-5.25,2.13-8.37-2.54-16.62-48.67,11.22,51.31,5.57-36.23,19.34-41.49,4.31-6.62,5-19.81,2.14-26.32.21,2.23.85,5.53,2.16,10.19,4.09-15.66,4.82-23.76,5.53-27.61,4.66-.48,1-1,2.18-1.76,3.5-35.15-11-32.13,20.65-48.06,14.09C55.61,103.4,47,87.31,55.16,102.89c-21.39,29.93-.79-8.45-23.33,11.18-9.79-23.89-42.4,14.39-27.2,11-1.51.41-3.07.82-4.63,1.2V1929.2c6.87,1,12.93,1.1,17.64,0-29.62-5.5-13.87-35.27,2.64-42.8,6.77.32,31.81,6.35,43.18,6.07,37.29-.9,16.16,15.76,33.8,17.92,21.18,2.6,64.56-30.91,70.68-31.12,4.43-.16,7,3.51,8.28,8.19,46.45,19.3,84.35-8,130.92,11.24,73.66,22.36,200.28-32.17,304.25,15.92-22.59-10.46,15.71-29.6,39.41-32.49,1.69,4.76,7.27,6.59,14.57,6.8a19.38,19.38,0,0,0-2.27-6.2c2.95,1.06,4.61,3,4.24,6.2,20.1-.25,50.57-11.69,48.54-12,37.16,6.23,94.91,64,112,12.3q7.86,21.07,26.32,13.07c4.94-8.1,1.84-11-9.08-9,5.48-3.86,18.29-22.64,20.71-22.76a53.46,53.46,0,0,0,22.32,18.61,179,179,0,0,0,37.84-12c19.66-.72,17-19.42,43.74-24-16.56,3.66,62.08,12.79,61.24,12.63,16.81,3.17,35.76,7.36,51.11,8.91,58.33,6,160.67,34,208.18,15.4,0-.37-.08-.74-.1-1l3.17-.25c1.29-.61,2.52-1.18,3.7-1.87a18.41,18.41,0,0,1,1.38,1.46c38.33-3.13,84.95-9.57,77.28-21.38,7.22,10.07,3.78,31.69,38.17,28.06,1.21-.12,36.39-12.09,47.23-26,7.5,7.74,17.17,10,20.49-12.54,45.44,63.94,43.86,43.16,67.11-7.33-.13,4.93,39.21,16.41,38.78,16.82,19.62-18,132-5.94,166.86-17.63a64.52,64.52,0,0,0-10.2,11.16c13.34,13,222-57.59,260.27-59.5,34.45-1.67,118-2.08,130.25,25.16-28.41,15.15,22.7-11.48,34.32-11.88,20-.7,41.5,2.48,59.92,1.62,13.41-.61,114.36,14.46,110.41-.81,18.83.93,63.06,25.86,86,32.09,30,8.1,58.45,16.61,89.58,23,37.87,7.77,67.49,13,94.09,23.33,13.43,5.17,27.57,10.51,41.29,15a62.48,62.48,0,0,1,14.12,6.16,34.14,34.14,0,0,0-3.05-11.77,28.71,28.71,0,0,0,9.26-.49c-22.07-25.9,39.63-12.06,33.75-17.72,16.15-6.07,95.21-19.58,96.2-29.85-1.07,11.08,80.52,1,89.45-.41,19.4-3,22.29-13,38.17-14.61,49-4.93-13.56-1.31,50.2,5.74-21.81-2.89,86.42-.2,95-.73,11.32-.65,97-29.49,101.81-6.73,2.79-6.71,8.13-12.53,16.13-17.46-29,56.07,33.11,6.71,50.17-.57,32.36-13.85,48.67-14.79,61.66-17.72-28.94-5.21,3.22-42.43,9.5-36.44,2.17,2.11,4.44,51.67,16.11,48.09,18.12-5.58,17.61-30.54,41.67-34,12.73-1.84,34.22,1.91,53.85,2,20.34,25.53,85,36.77,114,46.42-17.36-8.83-19.52-16.53-4.38-23.37,32.21-14.42,119.18,23.86,163.87,42.07a80.49,80.49,0,0,1,30.7-30.1c-.2,0,71.41,108.61,80.92,46.63-.45,12-.3,26,2.22,25a162,162,0,0,0,31-42.92q16.08,13.92,34.17,8.15c.86-1.55-2-14.1-3.62-15.44,10.17,8.55,42.53,42.6,53.3,45.33-13.59-3.42,58.17-95.7,76.49-67.24a28.65,28.65,0,0,1-5.58,21.22c16.1,11.12,90.13-16.37,69.45-18.94,2.41-.28,4.73-.69,7-1.14-4.83-4.84-1.26-10,6.6-14.37a20.79,20.79,0,0,0-6.09,14.25q25-5.13,40.36-22.76a2.75,2.75,0,0,0-.35-1.83c17.11-2.49,33.87-1.47,38.55,5.94q-3,13.2-19.93,15.8c14.94,7.74,21.79,23.78,27.17,37.3-24.71-62.38,49.27-.77,39.66-41.49.46-1.06,77.6.36,92.3,2q-12.37-2.88-13.44-12.09c73.48,5.12,109.77,2.24,185.31-8.68,77-11.11,134.83-40,192.6,8.06,10.87,2.33,18-1,21.39-9.85a60.26,60.26,0,0,0,16.56,8.11c-5.95-4.81,52.59-22.57,62-23.71-7.2.9,93.15,15.76,67.18-21.91,9.27,13.44,28.34,47.65,29.14,53.6,11-4.4,119.58-23.71,135.38-26.07,23.46-3.46,160.55,3.59,169.66-4.27-.81.69-39.91-19.22,17.61-34.21-18.82,4.93,39.76,8.71,56.62,5.37,52.39,23.54,122.95,31.61,148.92,49.89,21.84,15.43,30.45-51.07,18.07-64,55.45,6.2-4.38,12.55,11.12,28.27,8.7-14.62,36.58,15.84,33.31,20.69a104.48,104.48,0,0,0,22.34-1.72c-.35-1.38-.75-2.85-1.1-4.52a20,20,0,0,0,2.47,4.28c6.69-1.47,12.68-3.83,15.7-7.53a74.13,74.13,0,0,1-5.54,12.91c22.3,2.19,61.75-31.16,63-11,3.88-7.58,25.77-25.13,30.5,1.83q24.22,16.86,34.22,1.67c1.82,1.84,21.49-30,22.65-30.26q23.33,14.36,7.3,41c10-11.32,18.92-14.66,25.81-14.45a31.13,31.13,0,0,1,8.31-.53c-.45-4.93,1.41-9.21,5.63-12.75,7.35,4.19,8.51,10.22,5.54,14.33,19.88,4.24,45.4,15.44,60.85,22-23.35,8.6-5.24,5.09,10.11-.53a68.68,68.68,0,0,1-2.46-8.1c3.47-.32,7-.49,10.61-.61a15.21,15.21,0,0,1,3.73,3.38c2-1.26,3.37-2.49,3.57-3.59,42-.2,89.79,9.09,115.6-8.1.3,1.75-.85,2.93-3.62,3.55-2.67,1.09,62.26,11,42.28,39.82-.26.37,30-46.79,37-52.81-10,8.55,107.9-1.92,106-1.72,28.29-2.77,32.06-4.48,46.35-10,6.35-2.49,40.17,3.34,46.91.12,28.23-13.56-14.09-30.83,6.19-39.5,21.14-9,63,.45,89.13-3.22,9.66-1.34,15.6-18.49,26-20.2,6.94-1.14,17.67,1.84,35.38-4.32,6.19-2.11,28.48-10.54,44.79-16.57V16.9C6331.86,11.18,6310.43,21.65,6342.58,45Z"/><path d="M1033.9,1349.72c-.54,1.2-.85,2.25-.35,3.16A18.39,18.39,0,0,0,1033.9,1349.72Z"/><path class="bf3f2591-bf59-48b9-9bcf-1697072918c5" d="M620.6,855.42V477.24h80.2q46.74,0,70.91,25.5T795.88,575V751.84q0,53.13-25.77,78.35T696,855.42Zm54.17-327.19v276.2h25q22.83,0,32.4-11.42t9.56-35.86V575q0-22.31-9-34.52t-32.93-12.22Z"/><path class="bf3f2591-bf59-48b9-9bcf-1697072918c5" d="M1005.68,586.13V855.42H951.5v-26h-1.06a77.17,77.17,0,0,1-20.45,21q-12,8.24-30.54,8.23a62.1,62.1,0,0,1-20.19-3.45,46.76,46.76,0,0,1-18.06-11.42,57.36,57.36,0,0,1-12.74-20.45q-4.79-12.46-4.78-30.54V586.13h54.17V772.56q0,14.87,6.91,23.37t19.65,8.5q15.4,0,21.25-9.56t5.84-27.62V586.13Z"/><path class="bf3f2591-bf59-48b9-9bcf-1697072918c5" d="M1149.07,566.47q0-22.83,8-40.36a85.27,85.27,0,0,1,21.25-29.22,89.92,89.92,0,0,1,29-17,94.12,94.12,0,0,1,65.33,0,96.7,96.7,0,0,1,29.48,17,89.11,89.11,0,0,1,20.71,29.22q8,17.52,8,40.36v19.12h-54.18V566.47q0-19.63-10.89-28.94a40.33,40.33,0,0,0-51.52,0q-10.89,9.29-10.89,28.94V766.18q0,19.67,10.89,29a40.33,40.33,0,0,0,51.52,0q10.88-9.28,10.89-29V695h-43v-47.8h97.2v119q0,23.91-8,40.9a84.3,84.3,0,0,1-20.71,28.15,91,91,0,0,1-29.48,17.53,94.27,94.27,0,0,1-65.33,0,84.93,84.93,0,0,1-29-17.53A80.85,80.85,0,0,1,1157,807.08q-8-17-8-40.9Z"/><path class="bf3f2591-bf59-48b9-9bcf-1697072918c5" d="M1375.34,855.42V586.13h54.18v28.68q16.45-14.87,32.4-23.37t39.3-8.5V640.3a44,44,0,0,0-16.46-3.18,64.44,64.44,0,0,0-18.33,2.92,47.83,47.83,0,0,0-17.79,9.82,51.08,51.08,0,0,0-13.81,18.06q-5.31,11.16-5.31,27.62V855.42Z"/><path class="bf3f2591-bf59-48b9-9bcf-1697072918c5" d="M1523,531.42V477.24h54.18v54.18Zm0,324V586.13h54.18V855.42Z"/><path class="bf3f2591-bf59-48b9-9bcf-1697072918c5" d="M1720.05,661.55q-.54-13.81-8.77-20.72a28.56,28.56,0,0,0-18.85-6.9q-12.75,0-19.65,8.23a28.52,28.52,0,0,0-6.91,18.86,31.36,31.36,0,0,0,3.72,14.6q3.71,7.17,19.12,13l31.87,12.74q30.27,11.7,41.69,31.87a88,88,0,0,1,11.42,44.09,81.26,81.26,0,0,1-6.1,31.6,84.21,84.21,0,0,1-16.73,25.76,76.3,76.3,0,0,1-25.5,17.53,81.37,81.37,0,0,1-32.4,6.37q-32.94,0-55.24-20.71a75.89,75.89,0,0,1-18.06-25.23q-6.9-15.13-7.43-35.32h51a51.45,51.45,0,0,0,7.7,20.71q6.09,9.57,21.51,9.56a32,32,0,0,0,21-7.7q9.28-7.7,9.29-21.51,0-11.16-5.84-19.12t-21.24-13.81l-26-9.56q-25.5-9.55-40.1-28.42t-14.61-45.94a78.13,78.13,0,0,1,6.38-31.6,76.78,76.78,0,0,1,17.52-25.23,71.48,71.48,0,0,1,25-16.2,84.16,84.16,0,0,1,30.8-5.58,78.94,78.94,0,0,1,30.54,5.84,70,70,0,0,1,24.17,16.47,78.71,78.71,0,0,1,15.94,25.23,83,83,0,0,1,5.84,31.07Z"/></svg>